<svg width="214" height="227" viewBox="0 0 214 227" fill="none" xmlns="http://www.w3.org/2000/svg">
<path d="M113.2 75.8C115.067 76.0667 116.667 76.8667 118 78.2C120 80.2 121 83.2 121 87.2C121 89.8667 120.467 92.3334 119.4 94.6C118.467 96.8667 117.4 98.2666 116.2 98.8C114.6 99.4667 111.333 99.8 106.4 99.8H96V75.4C98 75.2666 100.933 75.2 104.8 75.2C108.667 75.2 111.467 75.4 113.2 75.8Z" fill="#1D1D1D"/>
<path d="M123.6 140.6C123.067 142.733 122.333 144.2 121.4 145C120.6 145.667 117.733 146.2 112.8 146.6C107.867 146.867 102.267 146.933 96 146.8V117.8C98.2667 117.667 101.067 117.6 104.4 117.6C109.6 117.6 113.267 117.8 115.4 118.2C117.667 118.6 119.4 119.4 120.6 120.6C121.8 121.667 122.733 123.467 123.4 126C124.2 128.4 124.6 131 124.6 133.8C124.6 136.067 124.267 138.333 123.6 140.6Z" fill="#1D1D1D"/>
<path fill-rule="evenodd" clip-rule="evenodd" d="M214 0H0V227H214V0ZM153.4 117C149.533 111.933 143.067 108.867 134 107.8V106.8C141.333 105.2 146.667 102.267 150 98C153.467 93.7333 155.2 88.1333 155.2 81.2C155.2 73.2 153.133 67.2667 149 63.4C144.867 59.4 139.467 56.8667 132.8 55.8C126.267 54.6 117.667 54 107 54H60V168H98.8C126 168 142.267 166.267 147.6 162.8C148.933 162 150.533 160.267 152.4 157.6C154.267 154.8 155.867 151.467 157.2 147.6C158.533 143.6 159.2 139.4 159.2 135C159.2 127.933 157.267 121.933 153.4 117Z" fill="#1D1D1D"/>
</svg>
